{"title":"Stolichani v poveche - Season 5 - Episode 7  (full)","uid":8391560,"size":907369984,"categoryP":"video","categoryS":"tv_shows","magnet":"?xt=urn:btih:97f121afacce4db78aa5f24f0cafdfaa7dd29c03&amp;dn=Stolichani+v+poveche+-+Season+5+-+Episode+7++%28full%29&amp;tr=udp%3A%2F%2Ftracker.openbittorrent.com%3A80&amp;tr=udp%3A%2F%2Fopen.demonii.com%3A1337&amp;tr=udp%3A%2F%2Ftracker.coppersurfer.tk%3A6969&amp;tr=udp%3A%2F%2Fexodus.desync.com%3A6969","seeders":4,"leechers":0,"uploader":"freeplay666","files":1,"time":1366443693,"description":"Stolichani v poveche.S05E07.WEB.Rip.AVI.FREEPLAY.avi\n   \nGeneral\n      \nComplete name : Stolichani v poveche.S05E07.WEB.Rip.AVI.FREEPLAY.avi\n      \nFormat : AVI\n      Format/Info : Audio Video Interleave\n      File size : 865 MiB\n      Duration : 45mn 47s\n      Overall bit rate : 2 642 Kbps\n   Video #0\n      ID : 0\n      Format : MPEG-4 Visual\n      Format profile : Simple@L3\n      Format settings, BVOP : No\n      Format settings, QPel : No\n      Format settings, GMC : No warppoints\n      Format settings, Matrix : Default (H.263)\n      Codec ID : XVID\n      Codec ID/Hint : XviD\n      Duration : 45mn 47s\n      Bit rate : 2 500 Kbps\n      Width : 1 280 pixels\n      Height : 720 pixels\n      Display aspect ratio : 16:9\n      Frame rate : 30.000 fps\n      Resolution : 24 bits\n      Colorimetry : 4:2:0\n      Scan type : Progressive\n      Bits/(Pixel*Frame) : 0.090\n      Stream size : 819 MiB (95%)\n      Writing library : XviD 1.2.1 (UTC 2008-12-04)\n   Audio #1\n      ID : 1\n      Format : MPEG Audio\n      Format version : Version 1\n      Format profile : Layer 3\n      Codec ID : 55\n      Codec ID/Hint : MP3\n      Duration : 45mn 47s\n      Bit rate mode : Constant\n      Bit rate : 128 Kbps\n      Channel(s) : 2 channels\n      Sampling rate : 48.0 KHz\n      Resolution : 16 bits\n      Stream size : 41.9 MiB (5%)\n      Alignment : Aligned on interleaves\n      Interleave, duration : 24 ms (0.72 video frame)\n      Writing library : LAME3.98","torrent":{"xt":"urn:btih:97f121afacce4db78aa5f24f0cafdfaa7dd29c03","amp;dn":"Stolichani+v+poveche+-+Season+5+-+Episode+7++%28full%29","amp;tr":["udp%3A%2F%2Ftracker.openbittorrent.com%3A80","udp%3A%2F%2Fopen.demonii.com%3A1337","udp%3A%2F%2Ftracker.coppersurfer.tk%3A6969","udp%3A%2F%2Fexodus.desync.com%3A6969"],"infoHash":"97f121afacce4db78aa5f24f0cafdfaa7dd29c03","infoHashBuffer":{"type":"Buffer","data":[151,241,33,175,172,206,77,183,138,165,242,79,12,175,223,170,125,210,156,3]},"announce":[],"urlList":[]}}